<svg width="68" height="49" viewBox="0 0 68 49" fill="none" xmlns="http://www.w3.org/2000/svg">
<g clip-path="url(#clip0_1_178)">
<path d="M12.0532 47.3406C12.0908 47.3406 12.0908 47.2909 12.0532 47.2909C12.0155 47.2909 12.0155 47.3406 12.0532 47.3406Z" fill="#5E4F47"/>
<path d="M67.3053 26.8236C67.3345 26.7615 67.3638 26.6994 67.3973 26.6415C67.5438 26.0373 67.7363 25.4497 68 24.8621C67.8744 24.7255 67.7489 24.589 67.6275 24.4524C67.6191 24.4441 67.6108 24.4317 67.6024 24.4235C63.7312 24.7628 61.6009 20.426 59.7888 17.7113C59.1945 16.8216 57.9766 14.6284 56.5829 13.0807C56.4323 12.7745 56.223 12.4807 56.0096 12.2159C55.566 11.3262 54.7792 10.6309 53.8584 10.2171C54.2602 7.77148 55.1307 5.3879 56.5829 3.3602C56.8048 3.04983 56.5076 2.6236 56.1561 2.6236C53.0758 2.63602 50.1797 3.70366 48.3801 6.25691C48.0997 6.02931 47.8109 5.80585 47.5221 5.59067C38.319 -3.88987 20.0258 0.0620786 10.6177 7.26662C7.57089 9.59641 5.62899 12.7083 4.67896 16.1388C4.57015 16.2423 4.46552 16.3499 4.34834 16.4451C3.81682 15.5347 3.01328 14.7112 1.98374 14.4339C0.749123 14.1029 0.209242 15.4229 0.00417016 16.354C-0.0209406 16.474 0.146465 16.5196 0.188316 16.4037C0.594274 15.2988 1.35178 14.4588 2.4441 15.3774C3.03839 15.874 3.41924 16.6396 3.63268 17.3637C3.70801 17.6203 4.01771 17.8396 4.29393 17.7362C4.29811 17.7362 4.3023 17.732 4.30648 17.732C3.87123 20.0701 3.86705 22.5158 4.26045 24.9407C4.60363 27.0429 5.29418 29.083 6.19398 31.0238C6.12283 31.2018 6.23583 31.4211 6.4116 31.479C6.92638 32.5467 7.49974 33.5812 8.11914 34.5785C8.19866 34.7068 8.28236 34.8433 8.37025 34.984C8.74691 36.031 9.45001 36.9042 10.2117 37.707C10.4377 38.0008 10.6679 38.2946 10.9064 38.5801C10.9064 38.5801 10.9064 38.5801 10.9023 38.5842C10.7055 38.8698 11.0487 39.1388 11.3124 39.0477C11.7435 39.5277 12.1955 39.9664 12.6684 40.3471C14.4847 42.59 15.6984 45.106 15.1711 48.4C15.1292 48.6648 15.4473 48.8634 15.5645 48.5945C15.5687 48.5821 15.5729 48.5738 15.577 48.5614C17.0962 48.6317 18.5652 48.5448 20.0886 48.4372C21.4613 48.3379 22.7922 48.7145 24.1231 48.731C24.19 48.7476 24.257 48.76 24.324 48.7848C24.3198 48.8179 24.3156 48.851 24.3114 48.8841C24.2989 49.0207 24.5123 49.0414 24.5458 48.9172C24.55 48.9007 24.5583 48.88 24.5625 48.8634C24.709 48.909 24.8513 48.8386 24.9475 48.7269C25.0103 48.7517 25.0647 48.7724 25.1275 48.7807C25.2238 48.8262 25.3075 48.8179 25.3786 48.7765C25.5167 48.731 25.5711 48.5986 25.5586 48.462C25.5669 48.3545 25.5377 48.2551 25.4581 48.1931C25.3242 47.7668 25.2614 47.3654 25.2698 46.9806C25.341 46.6868 25.4247 46.3971 25.5209 46.1074C25.6381 45.7971 25.7511 45.4908 25.8599 45.1805C25.8641 45.1681 25.8599 45.1598 25.8641 45.1474C26.1445 44.7211 26.5128 44.3404 26.9355 43.9928C26.9397 43.9928 26.9397 43.997 26.9397 43.997C27.0652 44.0342 27.1782 43.9266 27.174 43.8066C28.7184 42.6645 30.8904 42.0106 32.5017 41.8948C36.3311 41.6175 38.6622 45.1598 40.5413 47.8868C40.4409 47.9613 40.4325 48.1144 40.5539 48.1972C42.0731 49.2235 44.2452 48.8759 46.2917 48.5241C46.4508 48.5324 46.6056 48.5448 46.7605 48.5531C47.3799 48.4289 48.0034 48.3172 48.6228 48.1972C48.8907 48.1765 49.1543 48.1682 49.4013 48.1765C49.5812 48.1806 49.7277 48.0938 49.8281 47.9655C49.9663 47.9531 50.1002 47.953 50.2299 47.9696C51.2804 44.4232 52.2974 41.0423 54.6996 38.0753C56.4114 35.9648 58.642 34.6323 61.1029 33.8461C61.1531 33.8585 61.2033 33.8378 61.241 33.8005C61.7348 33.6474 62.2329 33.5191 62.7435 33.4074C62.8313 33.4695 62.9527 33.4405 63.0071 33.3495C64.0241 33.1426 65.0662 33.0143 66.1167 32.9522C66.1125 32.8363 66.1041 32.7205 66.1041 32.6046C66.1041 32.2818 66.1334 31.9632 66.1753 31.6487C66.2046 31.4294 66.2506 31.2183 66.3008 31.0031C66.3845 30.8417 66.4599 30.6721 66.5184 30.5024C66.7696 29.7865 66.9537 29.0541 67.142 28.3216C67.2676 27.8209 67.5898 27.2912 67.3053 26.8153C67.3094 26.8236 67.3094 26.8236 67.3053 26.8236ZM65.3341 32.2073C65.3382 32.3149 65.3675 32.406 65.4136 32.4805C65.2671 32.468 65.1206 32.4556 64.9741 32.4432C65.0997 32.3729 65.2169 32.2901 65.3341 32.2073ZM62.7895 32.4598C62.71 32.3439 62.6263 32.2322 62.5509 32.137C62.3082 31.8308 61.9734 31.6073 61.5925 31.508C61.5172 31.4873 61.4628 31.6032 61.5381 31.6404C61.8688 31.7935 62.099 32.0377 62.2747 32.348C62.304 32.3977 62.3208 32.4556 62.3459 32.5136C61.873 32.5715 61.4126 32.6543 60.9606 32.7618C60.7681 32.2197 60.6007 31.6652 60.4291 31.1231C60.3747 30.9452 60.1194 31.0197 60.1529 31.1976C60.2575 31.7646 60.3286 32.3439 60.5128 32.8819C59.8557 33.0639 59.2196 33.2957 58.6085 33.5729C58.5332 33.4157 58.4453 33.2626 58.3658 33.097C58.0812 32.4846 57.9013 31.8308 57.851 31.1604C57.8385 31.0073 57.6125 31.0073 57.6125 31.1604C57.5999 31.748 57.6878 32.3025 57.8385 32.8694C57.9138 33.155 58.0059 33.4943 58.144 33.7923C57.6334 34.0488 57.1396 34.3385 56.6666 34.6571C56.2984 33.9247 55.951 33.1757 55.6706 32.4101C55.6371 32.3232 55.5032 32.3605 55.5325 32.4473C55.792 33.246 56.11 34.0323 56.4574 34.802C55.0428 35.7868 53.7915 37.0242 52.7284 38.4477C52.628 38.1953 52.448 37.947 52.3518 37.7111C52.2011 37.3469 52.0798 36.9704 51.9416 36.6021C51.8579 36.3745 51.5022 36.4655 51.5734 36.7014C51.6989 37.1235 51.8077 37.5497 51.95 37.9635C52.0505 38.2573 52.1635 38.6712 52.4271 38.8698C52.0212 39.445 51.6445 40.045 51.2971 40.6699C51.1465 40.4547 50.9958 40.2395 50.8744 39.9995C50.5354 39.3374 50.3429 38.6008 50.1881 37.8766C50.1504 37.6945 49.8867 37.7773 49.9119 37.9511C50.05 38.9401 50.2969 40.3512 50.9832 41.2575C50.8075 41.601 50.6401 41.9527 50.481 42.3086C50.2718 42.1596 50.0541 42.0148 49.8658 41.8451C49.4222 41.4561 49.0999 40.9678 48.9325 40.405C48.8698 40.194 48.5726 40.285 48.6103 40.4919C48.7065 41.0465 48.9409 41.5554 49.2883 41.9982C49.5394 42.3169 49.8491 42.681 50.2174 42.9252C49.8742 43.7611 49.5812 44.6177 49.3427 45.495C48.8321 44.5391 48.3801 43.5625 47.9658 42.5486C47.9448 42.4948 47.857 42.5114 47.8737 42.5734C48.1876 43.7611 48.4219 45.0977 49.1836 46.0992C49.1041 46.4178 49.033 46.7406 48.9702 47.0633C48.3466 47.0675 47.7356 47.113 47.1204 47.1833C46.0783 47.1627 45.0194 47.2289 43.9941 47.3406C43.6927 47.3737 43.3286 47.4027 42.9729 47.4689C42.9436 46.8151 42.8766 46.1654 42.8181 45.5157C42.8181 45.4867 42.772 45.4867 42.772 45.5157C42.7134 46.1985 42.6423 46.8771 42.6172 47.5599C42.4581 47.6096 42.3117 47.6758 42.1777 47.7586C41.9978 47.771 41.8178 47.7834 41.6378 47.7958C41.6295 47.7503 41.6211 47.7048 41.596 47.6551C41.5081 47.4896 41.416 47.3282 41.324 47.1627C41.3407 46.844 41.2989 46.5088 41.303 46.1943C41.3072 45.5364 41.4035 44.8991 41.6086 44.2742C41.642 44.1749 41.4746 44.1046 41.4328 44.1997C41.1942 44.7584 41.0477 45.3212 40.964 45.9212C40.9431 46.0826 40.9138 46.2564 40.8887 46.4302C40.7213 46.1654 40.5455 45.9047 40.3656 45.6522C40.4032 45.6191 40.4325 45.5736 40.4283 45.5115C40.3907 44.5225 40.3405 43.5128 40.7339 42.5734C40.7673 42.4989 40.6376 42.4493 40.6041 42.5196C40.1689 43.3638 40.0977 44.3032 40.0601 45.2343C39.6457 44.7005 39.2021 44.1997 38.725 43.7445C38.7208 42.7431 39.0221 41.8037 39.4281 40.8892C39.4532 40.8354 39.3737 40.7858 39.3444 40.8395C38.8882 41.6589 38.5199 42.5114 38.3818 43.43C37.821 42.9335 37.2184 42.499 36.578 42.1389C36.8082 41.783 36.8961 41.3113 37.0761 40.9306C37.2811 40.4878 37.5113 40.0533 37.7038 39.6022C37.7164 39.5774 37.6745 39.5609 37.6578 39.5857C37.369 40.0492 37.0426 40.4919 36.7412 40.9471C36.5487 41.2368 36.2683 41.601 36.2307 41.9651C35.6196 41.6589 34.9793 41.423 34.3013 41.2658C34.6026 40.6244 34.7408 39.8174 34.7115 39.1801C34.7115 39.147 34.6654 39.1512 34.6612 39.1801C34.6068 39.6767 34.4436 40.1112 34.226 40.5582C34.1214 40.7733 33.9874 40.972 33.8744 41.183C33.4727 41.1127 33.0625 41.0671 32.6398 41.0547C32.6775 41.0382 32.711 41.0133 32.7361 40.9761C32.916 40.7154 32.8574 40.3885 32.8742 40.0905C32.8993 39.6519 32.9788 39.2132 33.0709 38.7829C33.0918 38.6836 32.9411 38.6049 32.8951 38.7084C32.7193 39.0932 32.5645 39.4864 32.4347 39.8878C32.3259 40.2312 32.1585 40.6451 32.3678 40.972C32.3887 41.0092 32.4222 41.034 32.4557 41.0506C32.0079 41.0465 31.5517 41.0671 31.0788 41.1334C31.0662 41.1334 31.0537 41.1375 31.0369 41.1375C31.0285 41.092 31.0118 41.0506 30.9741 41.0092C30.6142 40.6119 30.4468 40.1692 30.5598 39.6312C30.5975 39.4491 30.3506 39.3871 30.2836 39.5567C30.0576 40.1319 30.1371 40.7402 30.4677 41.2492C29.9739 41.3651 29.4717 41.5306 28.982 41.7458C28.9695 41.5886 28.9527 41.4272 28.9444 41.2782C28.9151 40.7195 28.8732 40.1567 28.8355 39.5981C28.8272 39.445 28.6054 39.445 28.597 39.5981C28.5593 40.1567 28.5258 40.7195 28.4882 41.2782C28.4714 41.5099 28.4379 41.7624 28.4379 42.0024C27.852 42.3045 27.2912 42.6728 26.789 43.0948C26.7095 42.9914 26.63 42.8921 26.563 42.7803C26.2868 42.3293 26.2282 41.8037 26.2742 41.2865C26.2868 41.1499 26.0733 41.1292 26.0399 41.2534C25.8808 41.8741 25.8976 42.8962 26.3286 43.5169C25.9436 43.8977 25.6088 44.3115 25.3493 44.7584C25.1568 44.5225 24.868 44.3363 24.709 44.0549C24.4495 43.6038 24.4495 43.0493 24.4997 42.5486C24.5039 42.4948 24.4202 42.4865 24.4035 42.5362C24.2612 43.0493 24.2068 43.5542 24.3198 44.0797C24.4035 44.4604 24.6755 45.0232 25.0605 45.2219C24.8304 45.7929 24.6253 46.3764 24.4788 46.9723C24.3114 46.6081 24.0729 46.2481 23.9138 45.9129C23.6041 45.2508 23.3195 44.7005 22.7713 44.1997C22.7294 44.1625 22.675 44.208 22.6959 44.2577C22.9889 44.9322 23.2275 45.6398 23.5037 46.3226C23.7046 46.8151 23.8636 47.4606 24.3156 47.7792C24.3114 47.8124 24.303 47.8413 24.2989 47.8744C22.131 46.5957 18.0212 47.9862 15.6691 48.3462C16.1127 47.2165 16.3136 46.1281 16.2843 45.0688C16.7824 43.9721 17.2762 42.8672 17.6571 41.7168C17.6738 41.6672 17.5943 41.6299 17.5692 41.6796C17.1716 42.4617 16.7028 43.2107 16.2592 43.968C16.2383 44.0052 16.2132 44.0466 16.1881 44.088C16.1378 43.7818 16.0709 43.4756 15.983 43.1735C16.2508 42.8052 16.4894 42.4079 16.728 42.0479C17.2846 41.212 17.7742 40.3388 18.1509 39.4077C18.2011 39.2836 17.9919 39.1967 17.9333 39.3167C17.5315 40.1112 17.0377 40.8437 16.5061 41.5596C16.2801 41.8617 16.0081 42.1555 15.7403 42.4493C15.6022 42.0934 15.4431 41.7375 15.259 41.3775C15.3301 41.2575 15.3259 41.092 15.2255 40.9637C15.1753 40.9016 15.1209 40.8395 15.0706 40.7733C15.4557 40.2685 15.7528 39.6684 16.029 39.147C16.5271 38.216 16.9121 37.2228 17.2511 36.2255C17.2762 36.151 17.1507 36.0972 17.1214 36.1717C16.7447 37.0283 16.3178 37.8559 15.8365 38.6587C15.4933 39.2298 15.0539 39.7264 14.6354 40.2395C14.514 40.0947 14.3885 39.9498 14.2629 39.805C14.0411 39.5071 13.8109 39.2215 13.5724 38.9401C13.8821 38.4022 14.2336 37.8932 14.5433 37.3552C15.1334 36.3331 15.7319 35.2861 15.9704 34.1192C15.9872 34.0281 15.8616 33.995 15.8323 34.0819C15.4306 35.2985 14.6103 36.3289 13.8486 37.3469C13.6435 37.6242 13.3464 37.9883 13.0827 38.3815C12.84 38.1084 12.5972 37.8394 12.3545 37.5745C13.3547 35.9607 14.2169 34.3012 14.694 32.4308C14.7191 32.3398 14.5894 32.3108 14.5559 32.3936C13.8988 34.0488 12.932 35.5965 11.9276 37.0945C11.4128 36.5028 10.9064 35.8696 10.3666 35.2944C11.2789 33.4446 12.1118 31.5866 13.3631 29.8941C13.3798 29.8693 13.3464 29.8486 13.3254 29.8651C11.8648 31.028 10.6721 32.8322 9.80993 34.6116C9.63834 34.3757 9.47094 34.1357 9.3119 33.8874C9.17379 33.6722 9.04405 33.4529 8.91431 33.2377C9.95641 31.7811 10.6804 30.1507 11.3961 28.5078C11.5049 28.2595 11.1408 28.0402 11.0236 28.2926C10.3163 29.8196 9.60067 31.3549 8.6088 32.7205C8.24051 32.0749 7.90151 31.4169 7.59181 30.7424C9.11101 29.4017 9.98571 27.5022 10.806 25.669C10.8185 25.6401 10.7809 25.6194 10.7641 25.6442C9.7346 27.1505 8.75528 28.9299 7.33233 30.1465C7.06449 29.5217 6.82175 28.8885 6.59994 28.2471C7.98521 26.927 8.69669 25.0193 9.96478 23.5834C10.0066 23.5379 9.94386 23.4758 9.89782 23.5172C8.57113 24.7586 7.66296 26.3187 6.38231 27.5809C6.18142 26.9395 6.00983 26.2898 5.85498 25.6359C7.20678 24.4772 8.22377 22.9958 9.10264 21.4522C9.1152 21.4274 9.0859 21.4026 9.06498 21.4233C7.98103 22.6275 6.96823 23.9807 5.72524 25.0483C5.67921 24.8331 5.64573 24.6179 5.60806 24.3986C5.79639 24.1793 5.9638 23.9351 6.12702 23.72C6.61249 23.0785 7.01426 22.3709 7.39511 21.6633C7.41185 21.6385 7.37 21.6136 7.35326 21.6385C6.93893 22.2426 6.50368 22.8261 6.02239 23.3765C5.87172 23.5462 5.69176 23.7034 5.5118 23.8607C5.4574 23.4634 5.41554 23.0703 5.38625 22.6771C5.87591 22.044 6.29861 21.3653 6.59157 20.6122C6.62086 20.5377 6.49531 20.4839 6.46183 20.5584C6.17724 21.1709 5.79639 21.7212 5.36951 22.2344C5.33184 21.4481 5.34021 20.6701 5.40717 19.9004C5.86335 19.4949 6.26094 19.0314 6.58738 18.5142C6.6376 18.4355 6.51623 18.3693 6.46183 18.4438C6.16887 18.8328 5.82987 19.1845 5.45321 19.4949C5.56202 18.5224 5.75454 17.5707 6.02657 16.6437C6.54553 16.1182 6.88034 15.4602 6.80919 14.6822C6.80501 14.6574 6.80082 14.6326 6.79245 14.6036C8.03544 11.8434 10.0401 9.40191 12.7228 7.50664C22.064 0.906264 39.0724 -1.64698 48.1164 6.71211C48.1708 6.76177 48.2294 6.77004 48.2797 6.74935C48.4136 7.10937 49.0079 7.29559 49.3008 6.86936C50.6735 4.87476 52.9126 3.9354 55.2521 3.66642C54.9926 4.11334 54.7415 4.58923 54.5113 5.08167C54.3899 5.08581 54.2769 5.15616 54.2393 5.30927C53.938 6.40175 53.5153 7.4487 53.1218 8.51221C52.9461 8.9881 52.7494 9.51778 52.6908 10.0475C52.2765 10.3123 52.1551 11.0034 52.6866 11.2972C52.8749 11.4006 53.0633 11.5082 53.2432 11.62C53.1804 11.7027 53.147 11.8103 53.1804 11.9179C53.193 11.9634 53.2139 12.0048 53.2307 12.0462C53.4148 12.0048 53.6031 11.9965 53.7956 12.0296C54.3146 12.6959 55.0721 13.3332 55.3483 13.6932C55.4362 13.8091 55.5409 13.8753 55.6497 13.9125C55.8296 14.1277 56.0305 14.3181 56.2733 14.4629C57.5037 16.1678 58.4955 18.0258 59.3995 19.9294C60.563 21.713 62.3584 23.1158 63.7521 24.7338C64.8235 25.3711 65.9953 25.6359 67.1671 25.1187C66.7905 25.7725 66.5394 26.4925 66.3259 27.2457C66.2087 27.6512 66.0665 28.1106 65.9283 28.5906C65.6354 29.4886 65.4429 30.4196 65.3759 31.359C65.196 31.657 64.9658 31.9135 64.677 32.1122V31.9839C64.677 31.8639 64.4845 31.8639 64.4845 31.9839V32.2404C64.4217 32.2735 64.3966 32.3315 64.3966 32.3894C63.8358 32.3936 63.3085 32.4142 62.7895 32.4598Z" fill="#5E4F47"/>
<path d="M32.2213 19.9584C31.8405 17.3762 31.3048 14.7981 31.1959 12.1952C32.6063 12.609 33.9456 13.5649 35.0797 14.3098C35.1216 14.3346 35.1676 14.2849 35.1467 14.2436C34.385 12.998 32.8365 11.7896 31.1792 11.2393C31.1792 10.5606 31.2127 9.88194 31.288 9.20328C31.2922 9.17431 31.2462 9.17018 31.242 9.195C31.1206 9.85711 31.0495 10.5192 30.9992 11.1896C30.4719 11.0324 29.9404 10.9413 29.4215 10.9372C29.367 10.2213 29.3252 9.50537 29.3252 8.78119C29.3252 8.57428 28.9904 8.51635 28.9485 8.73153C28.8062 9.48468 28.7142 10.242 28.6598 11.0034C28.2538 11.0737 27.8604 11.202 27.4921 11.4131C25.4832 12.5635 23.1228 16.0726 25.1442 18.2245C26.2659 19.4163 27.7725 19.8756 29.2959 20.3101C29.3085 20.4094 29.321 20.5046 29.3336 20.6039C29.7353 23.8234 29.4215 27.5395 30.0743 30.8542C28.6514 30.1176 27.2494 28.4044 25.8097 27.8581C25.5586 27.7629 25.2782 28.0526 25.3661 28.2968C26.065 30.2127 28.2747 32.1494 30.4761 32.4349C30.5933 32.795 30.7188 33.1508 30.8695 33.4984C31.0578 33.9329 31.7065 33.6805 31.7191 33.2708C31.7275 32.9853 31.7233 32.6956 31.7107 32.4101C31.8488 32.3853 31.9869 32.348 32.125 32.3067C32.1543 32.795 32.1962 33.2833 32.2673 33.7716C32.305 34.0447 32.7821 34.0447 32.824 33.7716C32.9119 33.1508 32.9704 32.5218 33.0123 31.8846C33.1504 31.7935 33.2843 31.6983 33.4141 31.5825C36.239 29.1161 36.984 25.1518 34.8621 21.9737C34.1967 20.9846 33.2634 20.3887 32.2213 19.9584ZM30.9365 12.129C30.8486 14.6326 31.1374 17.1692 31.3968 19.6521C31.0997 19.5528 30.7984 19.4618 30.4928 19.3708C30.1999 16.9085 29.7563 14.4712 29.5052 12.009C29.9864 11.9634 30.4677 12.0131 30.9365 12.129ZM27.0652 18.2079C24.2486 16.7885 26.1863 13.1594 28.4547 12.2531C28.5049 12.2324 28.5551 12.22 28.6095 12.2035C28.5761 14.4587 28.8439 16.7347 29.1285 18.9776C28.4045 18.7624 27.7014 18.5266 27.0652 18.2079ZM31.6145 31.1645C31.4722 29.7782 31.2169 28.3919 31.1081 27.0139C30.9407 24.9118 30.8318 22.8054 30.6351 20.7032C30.9407 20.7984 31.242 20.906 31.5349 21.026C31.74 23.0413 31.9493 25.04 32.0372 27.0677C32.0916 28.3837 32.0539 29.7079 32.0748 31.028C31.92 31.0942 31.7693 31.1397 31.6145 31.1645ZM33.7949 29.2692C33.5522 29.6748 33.3136 29.9976 33.0751 30.2624C33.1169 27.3119 32.7821 24.2786 32.4222 21.4357C32.4975 21.4771 32.577 21.5185 32.6524 21.5598C35.3392 23.1696 35.2011 26.9312 33.7949 29.2692Z" fill="#5E4F47"/>
<path d="M18.3685 43.3514C17.565 44.7584 16.5145 45.975 15.9914 47.531C15.8533 47.9365 16.5187 48.1186 16.6401 47.7048C17.0837 46.2026 18.0337 44.9074 18.5443 43.4218C18.582 43.3183 18.4229 43.2562 18.3685 43.3514Z" fill="#5E4F47"/>
<path d="M53.6743 35.4475C53.4441 35.0668 53.4943 34.5537 53.5571 34.1357C53.5739 34.0198 53.3981 33.9619 53.373 34.0861C53.26 34.5785 53.1972 35.0875 53.3981 35.5634C53.5446 35.911 53.9212 36.3331 54.3188 36.3621C54.4569 36.3703 54.4904 36.2048 54.4192 36.1179C54.2016 35.8531 53.8668 35.7662 53.6743 35.4475Z" fill="#5E4F47"/>
</g>
<defs>
<clipPath id="clip0_1_178">
<rect width="68" height="49" fill="white"/>
</clipPath>
</defs>
</svg>
