<svg width="59" height="59" viewBox="0 0 59 59" fill="none" xmlns="http://www.w3.org/2000/svg">
<g clip-path="url(#clip0_1_55)">
<path d="M18.6677 51.2797C12.9301 51.0749 7.2215 50.3796 1.47424 50.5653C1.16005 50.5748 0.947371 50.8034 0.928036 51.1035C0.778192 53.0562 0.352827 55.5375 1.3969 57.314C1.26639 57.3283 1.13588 57.3426 1.01021 57.3569C0.80236 57.3854 0.826529 57.7045 1.01021 57.7522C4.13761 58.538 7.36651 58.6047 10.5809 58.6523C12.6836 58.6809 14.7669 58.9857 16.8695 58.9905C21.0313 59.0048 19.6682 54.3421 19.2864 51.7417C19.2477 51.4654 18.9239 51.2892 18.6677 51.2797ZM13.6213 57.3712C9.96703 56.9139 5.8729 56.8377 2.14129 57.233C2.04945 55.328 1.87061 53.561 1.98661 51.6464C2.75517 51.6369 3.51889 51.6464 4.28745 51.6655C4.22945 53.261 3.99743 54.9803 4.20044 56.552C4.22461 56.7282 4.4518 56.7282 4.47596 56.552C4.67898 54.9803 4.44696 53.261 4.38896 51.6702C6.66562 51.7274 8.93263 51.875 11.2045 52.0465C10.8226 53.1895 10.6196 54.3373 10.7694 55.5471C10.7888 55.709 11.0208 55.6804 10.9966 55.5185C10.8033 54.3373 10.9676 53.1943 11.3011 52.056C12.2147 52.1227 13.1283 52.1941 14.0418 52.2608C13.6551 53.723 13.4666 55.2518 13.6116 56.7615C13.6261 56.9378 13.8727 56.9378 13.8872 56.7615C14.0273 55.2565 13.9113 53.7658 14.1288 52.2703C15.4533 52.3656 16.7777 52.4608 18.107 52.5275C18.2906 53.7087 18.5275 54.8803 18.5372 56.0805C18.5565 58.4856 15.0037 57.5474 13.6213 57.3712Z" fill="#5E4F47"/>
<path d="M41.7631 50.3034C41.7679 49.9747 41.4924 49.7509 41.1782 49.7318C38.2393 49.5461 35.3149 49.5413 32.376 49.7271C29.5193 49.9033 26.6819 49.4032 23.8301 49.7175C23.6899 49.5651 23.395 49.5223 23.2984 49.7461C22.9262 50.5605 22.815 51.4321 22.8247 52.3227C22.8102 52.2418 22.699 52.2418 22.6893 52.3275C22.525 53.9087 22.2978 55.3184 22.8682 56.8473C22.9165 56.9711 23.0422 57.0521 23.1727 57.0616C23.2694 57.1807 23.4144 57.2664 23.5787 57.2711C29.5918 57.5379 35.7935 58.3904 41.7437 57.114C42.0386 57.0521 42.2464 56.6949 42.1449 56.4139C41.4344 54.4135 41.7196 52.3656 41.7631 50.3034ZM24.0959 56.271C24.1056 55.3232 24.0863 54.3897 23.8687 53.4896C24.2264 52.6513 24.2554 51.7798 24.3279 50.8415C27.0106 50.6225 29.6885 51.0035 32.3809 50.8796C35.1264 50.7558 37.8429 50.7082 40.5836 50.8463C40.5498 51.7893 40.5015 52.7228 40.5305 53.6515C40.429 53.6658 40.3275 53.7325 40.2791 53.8515C40.1679 54.1373 40.0809 54.4326 40.0181 54.7279C40.0084 54.6517 39.8876 54.6517 39.8828 54.7326C39.8683 55.2518 39.8537 55.7709 39.8392 56.2853C34.6672 57.0949 29.3018 56.4901 24.0959 56.271Z" fill="#5E4F47"/>
<path d="M22.699 38.53C22.699 38.5348 22.7038 38.5348 22.7038 38.5395C22.7038 38.5634 22.7038 38.5824 22.7087 38.6062C22.7232 39.0396 23.2259 39.1492 23.4821 38.9396C25.6766 39.3111 27.9822 38.8539 30.1767 38.6967C33.4491 38.4633 36.8665 38.7205 40.1583 38.6967C40.3661 38.6967 40.603 38.5491 40.6417 38.3348C41.0332 36.282 42.3334 31.9909 39.3897 31.4527C37.5046 31.105 35.5131 31.7527 33.6038 31.6432C29.9882 31.4289 26.3629 31.6003 22.757 31.2288C22.6072 31.2146 22.496 31.2574 22.4138 31.3289C22.3945 31.2669 22.2978 31.2622 22.2785 31.3289C21.8434 33.0958 22.2543 34.9437 22.5202 36.7678C22.5057 37.3489 22.5347 37.9395 22.699 38.53ZM34.1017 32.6957C33.5265 33.9483 33.6811 35.2533 33.7005 36.5916C33.7005 36.7393 33.9325 36.7393 33.9325 36.5916C33.9277 35.3105 33.7778 34.0245 34.3482 32.8291C34.3724 32.7767 34.3627 32.7243 34.3337 32.6862C34.6092 32.6719 34.8847 32.6672 35.1602 32.6481C36.6249 32.5624 38.1136 32.2433 39.5782 32.5052C40.7577 32.7196 39.8924 36.7964 39.8006 37.4156C39.6942 38.0966 35.5759 37.7966 34.6962 37.8061C32.7821 37.8204 30.9259 37.6775 29.0166 37.8299C29.0215 37.8204 29.0263 37.8156 29.0311 37.8061C29.1375 36.4583 29.2051 35.1152 29.3502 33.7721C29.355 33.7483 29.3115 33.7435 29.3067 33.7673C29.0601 35.0961 28.7218 36.4487 28.804 37.8061C28.804 37.8251 28.8185 37.8299 28.8233 37.8442C27.813 37.9347 26.8076 38.0395 25.7974 38.0871C26.2373 36.5678 26.3436 34.9342 26.1696 33.372C26.1551 33.2292 25.9231 33.2244 25.9376 33.372C26.1068 35.0009 25.8361 36.5106 25.546 38.1014C25.0965 38.1157 24.6421 38.1252 24.1926 38.1014C23.9219 38.0919 23.7382 37.9442 23.6174 37.7299C23.5787 37.1012 23.5159 36.4678 23.4241 35.8343C23.4627 35.3724 23.5256 34.9628 23.5401 34.7675C23.5981 33.9436 23.3854 33.2387 23.0664 32.4862C22.9987 32.3243 22.8343 32.2719 22.699 32.2957C22.6942 32.2814 22.6942 32.2671 22.6893 32.2528C22.7183 32.2623 22.7425 32.2766 22.7812 32.2814C26.4354 32.6386 30.3701 32.8434 34.1017 32.6957Z" fill="#5E4F47"/>
<path d="M22.8246 48.7079C22.844 48.6507 22.8681 48.5888 22.8875 48.5221C22.931 48.5507 22.9793 48.5745 23.0277 48.5793C29.0214 49.6175 35.1457 48.8698 41.1782 48.6126C41.5165 48.5983 41.8017 48.284 41.6954 47.9411C40.9606 45.5454 41.2748 43.0784 41.3087 40.6208C41.3135 40.316 41.0573 40.1065 40.7673 40.0874C35.0394 39.7112 29.3066 40.0588 23.5739 40.0779C23.3515 40.0779 23.2113 40.1874 23.1243 40.3351C22.989 40.3541 22.873 40.4637 22.8633 40.6208C22.8391 41.2067 22.9938 41.7496 22.989 42.3354C22.9842 43.2022 22.7618 44.0785 22.641 44.9358C22.554 45.555 22.641 46.1408 22.7183 46.7218C22.67 47.1743 22.6361 47.6267 22.6361 48.0792C22.6361 48.184 22.6748 48.2935 22.7376 48.384C22.7183 48.4793 22.7086 48.5697 22.6845 48.665C22.67 48.7555 22.7956 48.7888 22.8246 48.7079ZM40.2163 41.1304C40.1631 43.3022 39.9939 45.4692 40.4966 47.5886C36.533 47.7791 32.5839 48.0982 28.6106 48.0459C28.3012 48.0411 27.9919 48.022 27.6825 48.0125C27.7453 48.0077 27.8082 47.9696 27.8082 47.8839C27.8517 46.2646 27.7743 44.6644 27.6922 43.045C27.6922 43.0165 27.6487 43.0165 27.6438 43.045C27.5617 44.6644 27.4843 46.2646 27.5278 47.8839C27.5327 47.9649 27.5907 48.003 27.6535 48.0125C26.9043 47.9792 26.1551 47.9363 25.4107 47.8744C23.5255 47.7125 23.5835 47.4791 23.6995 45.8264C23.7527 45.0835 23.8107 44.4072 23.801 43.7452C24.0089 42.8212 24.1539 41.9163 23.8687 41.1686C29.3211 41.1305 34.7687 40.8209 40.2163 41.1304Z" fill="#5E4F47"/>
<path d="M3.06456 53.3277C3.05006 54.4707 3.03556 55.6137 3.02106 56.7568C3.02106 56.8758 3.20474 56.8758 3.20474 56.7568C3.19024 55.6137 3.17574 54.4707 3.16123 53.3277C3.1564 53.2705 3.06456 53.2705 3.06456 53.3277Z" fill="#5E4F47"/>
<path d="M5.93577 52.2989C5.33156 53.5086 5.14788 55.1089 5.66025 56.3853C5.71342 56.5186 5.91644 56.471 5.8826 56.3234C5.57325 54.9565 5.43307 53.6706 6.01794 52.3418C6.03728 52.2894 5.96477 52.2418 5.93577 52.2989Z" fill="#5E4F47"/>
<path d="M7.15867 52.318C7.12483 53.6515 6.99432 55.0232 7.091 56.352C7.10066 56.4996 7.30851 56.4996 7.32301 56.352C7.41969 55.0232 7.28434 53.6515 7.25534 52.318C7.25051 52.2608 7.15867 52.2608 7.15867 52.318Z" fill="#5E4F47"/>
<path d="M8.36224 52.318C8.35257 53.5277 8.34774 54.7374 8.33807 55.9471C8.33807 56.0662 8.52175 56.0662 8.52175 55.9471C8.51209 54.7374 8.50725 53.5277 8.49759 52.318C8.50242 52.2322 8.36224 52.2322 8.36224 52.318Z" fill="#5E4F47"/>
<path d="M9.20333 52.318C9.17916 53.5848 9.06315 54.885 9.15983 56.1519C9.1695 56.2662 9.33384 56.2662 9.34351 56.1519C9.44018 54.8898 9.32417 53.5848 9.29517 52.318C9.29517 52.2608 9.20817 52.2608 9.20333 52.318Z" fill="#5E4F47"/>
<path d="M12.6207 56.1519C12.6062 55.6042 12.5434 54.9279 12.5724 54.2802C12.4902 54.8898 12.4515 55.509 12.437 56.1519C12.4322 56.2662 12.6207 56.2662 12.6207 56.1519Z" fill="#5E4F47"/>
<path d="M12.9107 52.718C12.8866 52.799 12.8721 52.88 12.8479 52.9562C12.8817 52.88 12.9107 52.8038 12.9542 52.7323C12.9736 52.7037 12.9252 52.6799 12.9107 52.718Z" fill="#5E4F47"/>
<path d="M12.8479 52.9562C12.6691 53.3467 12.5917 53.8039 12.5724 54.2754C12.6304 53.8373 12.7222 53.3991 12.8479 52.9562Z" fill="#5E4F47"/>
<path d="M14.9603 53.1276C14.9361 54.404 14.9167 55.6804 14.8926 56.9568C14.8926 57.0759 15.0811 57.0759 15.0763 56.9568C15.0521 55.6804 15.0279 54.404 15.0086 53.1276C15.0038 53.099 14.9603 53.099 14.9603 53.1276Z" fill="#5E4F47"/>
<path d="M16.188 52.7228C16.1494 53.9182 16.0043 55.1613 16.0962 56.3519C16.1059 56.4996 16.3137 56.4996 16.3282 56.3519C16.42 55.1613 16.275 53.9182 16.2364 52.7228C16.2315 52.6942 16.188 52.6942 16.188 52.7228Z" fill="#5E4F47"/>
<path d="M17.4158 52.7228C17.3819 54.0087 17.1789 55.2661 16.9421 56.5282C16.9227 56.6425 17.1016 56.6901 17.1209 56.5758C17.3143 55.2946 17.4738 54.0182 17.4641 52.718C17.4593 52.6942 17.4158 52.6942 17.4158 52.7228Z" fill="#5E4F47"/>
<path d="M17.7783 53.9325L17.73 57.1568C17.73 57.3045 17.962 57.3045 17.962 57.1568L17.9185 53.9325C17.9137 53.8468 17.7783 53.8468 17.7783 53.9325Z" fill="#5E4F47"/>
<path d="M24.7147 52.318C24.6857 53.2276 24.4923 54.285 24.676 55.1756C24.7002 55.3042 24.9177 55.3042 24.9418 55.1756C25.1207 54.285 24.9322 53.2229 24.9032 52.318C24.8935 52.2037 24.7195 52.2037 24.7147 52.318Z" fill="#5E4F47"/>
<path d="M25.9666 51.494C25.5219 52.8133 25.3527 54.1611 25.5074 55.547C25.5219 55.6899 25.7587 55.6899 25.7394 55.547C25.5557 54.1849 25.6911 52.8466 26.1019 51.5321C26.1261 51.4464 25.9956 51.413 25.9666 51.494Z" fill="#5E4F47"/>
<path d="M27.2378 51.9179C27.1895 53.1752 27.0252 54.4945 27.1218 55.7471C27.1363 55.9233 27.3829 55.9233 27.3974 55.7471C27.494 54.4897 27.3297 53.1752 27.2813 51.9179C27.2862 51.8846 27.2427 51.8846 27.2378 51.9179Z" fill="#5E4F47"/>
<path d="M28.5284 51.937C28.5623 51.8893 28.4849 51.8465 28.4463 51.8893C27.6004 53.0228 27.9242 54.7422 28.3979 55.9709C28.4414 56.0805 28.5961 56.0376 28.5768 55.9233C28.3206 54.5993 27.6632 53.1895 28.5284 51.937Z" fill="#5E4F47"/>
<path d="M29.674 52.318C29.6402 53.5848 29.5096 54.8898 29.6063 56.1519C29.616 56.2996 29.8238 56.2996 29.8383 56.1519C29.935 54.8898 29.8045 53.5848 29.7707 52.318C29.761 52.2608 29.674 52.2608 29.674 52.318Z" fill="#5E4F47"/>
<path d="M30.9018 52.5323C31.274 53.5134 31.2933 54.5088 31.2885 55.5471C31.2885 55.6328 31.4286 55.6328 31.4286 55.5471C31.419 54.4993 31.3851 53.4991 30.9936 52.5085C30.9694 52.4561 30.8824 52.4799 30.9018 52.5323Z" fill="#5E4F47"/>
<path d="M32.5597 51.9179C32.4969 53.1895 32.3519 54.4802 32.4437 55.7471C32.4582 55.9233 32.7047 55.9233 32.7192 55.7471C32.8159 54.4802 32.6661 53.1848 32.6032 51.9179C32.6032 51.8846 32.5646 51.8846 32.5597 51.9179Z" fill="#5E4F47"/>
<path d="M33.86 51.5131C33.8648 51.4559 33.773 51.4559 33.7682 51.5131C33.6086 53.0181 34.1113 54.4516 34.1307 55.9471C34.1307 56.0662 34.3192 56.0662 34.3144 55.9471C34.2612 54.4516 33.7295 53.0181 33.86 51.5131Z" fill="#5E4F47"/>
<path d="M34.9959 51.5131C35.1457 52.8561 35.4019 54.1897 35.3342 55.5471C35.3294 55.6756 35.5324 55.7042 35.5614 55.5756C35.8611 54.2087 35.3536 52.8419 35.0877 51.4988C35.0732 51.4512 34.9862 51.4607 34.9959 51.5131Z" fill="#5E4F47"/>
<path d="M36.6297 51.5131V54.5374C36.6297 54.5945 36.7215 54.5945 36.7215 54.5374V51.5131C36.7215 51.4559 36.6297 51.4559 36.6297 51.5131Z" fill="#5E4F47"/>
<path d="M37.5916 51.3416C37.6882 52.0322 37.7221 52.7275 37.7366 53.4229C37.7463 54.0039 37.6641 54.604 37.7994 55.1708C37.8236 55.2803 37.9976 55.2803 38.0218 55.1708C38.2973 53.9801 38.0266 52.4751 37.8188 51.2797C37.7849 51.1368 37.5722 51.1987 37.5916 51.3416Z" fill="#5E4F47"/>
<path d="M39.496 52.9419C39.5637 52.2703 39.5057 51.675 39.1915 51.0749C39.1529 50.9939 39.0368 51.0654 39.0707 51.1416C39.7812 52.6561 38.6405 54.304 39.4187 55.8138C39.4912 55.9519 39.7232 55.8566 39.6701 55.709C39.3317 54.7564 39.3945 53.923 39.496 52.9419Z" fill="#5E4F47"/>
<path d="M24.5116 47.0743L24.5358 42.6354C24.5358 42.4592 24.2603 42.4592 24.2603 42.6354L24.2844 47.0743C24.2844 47.2219 24.5116 47.2219 24.5116 47.0743Z" fill="#5E4F47"/>
<path d="M25.285 46.8742C25.372 45.3359 25.2657 43.7737 25.2415 42.2354C25.2415 42.2068 25.198 42.2068 25.1932 42.2354C25.169 43.7737 25.0627 45.3359 25.1497 46.8742C25.1497 46.9647 25.2802 46.9647 25.285 46.8742Z" fill="#5E4F47"/>
<path d="M26.5369 47.0743C26.7061 45.6264 26.5563 44.0976 26.5369 42.6354C26.5369 42.5164 26.3532 42.5164 26.3532 42.6354C26.3387 44.0928 26.1841 45.6216 26.3532 47.0743C26.3629 47.1933 26.5224 47.1933 26.5369 47.0743Z" fill="#5E4F47"/>
<path d="M29.8287 47.3076C30.1042 45.7455 29.6981 44.2262 30.3024 42.6878C30.3894 42.4687 30.0317 42.3735 29.9495 42.5926C29.3936 44.0023 29.3211 45.8312 29.6063 47.3076C29.6305 47.4172 29.8093 47.4172 29.8287 47.3076Z" fill="#5E4F47"/>
<path d="M32.057 47.6791C32.0667 47.8268 32.2745 47.8268 32.289 47.6791C32.405 46.2598 32.3857 44.7596 31.8298 43.426C31.796 43.3451 31.6655 43.3784 31.6945 43.4642C32.231 44.8834 31.97 46.2265 32.057 47.6791Z" fill="#5E4F47"/>
<path d="M33.9035 46.8742C33.9422 45.3264 33.802 43.7833 33.8358 42.2354C33.8358 42.2021 33.7875 42.2021 33.7875 42.2354C33.8213 43.7785 33.6812 45.3216 33.7198 46.8742C33.7247 46.9933 33.8987 46.9933 33.9035 46.8742Z" fill="#5E4F47"/>
<path d="M35.9481 46.8504C35.6243 45.3121 35.5083 43.8071 35.4744 42.2354C35.4744 42.2068 35.4309 42.2068 35.4261 42.2354C35.3923 43.769 35.2859 45.4169 35.7693 46.898C35.808 47.0124 35.9723 46.9647 35.9481 46.8504Z" fill="#5E4F47"/>
<path d="M37.6061 46.036C37.1565 44.5881 37.3596 43.3213 37.5626 41.8496C37.5722 41.7639 37.4466 41.7258 37.4272 41.8115C37.1856 43.2308 36.7554 44.7453 37.3934 46.1217C37.4514 46.2408 37.6448 46.1598 37.6061 46.036Z" fill="#5E4F47"/>
<path d="M39.2447 46.2408C38.7758 44.7596 38.8048 43.3641 38.7952 41.8353C38.7952 41.7448 38.6598 41.7496 38.655 41.8353C38.6212 43.3165 38.365 44.9453 39.032 46.3313C39.09 46.4456 39.2834 46.3599 39.2447 46.2408Z" fill="#5E4F47"/>
<path d="M40.0229 45.6645C39.9262 44.5119 39.6217 43.4022 39.5927 42.2354C39.5927 42.1782 39.5009 42.1782 39.5009 42.2354C39.5009 43.3689 39.6024 44.5786 39.8875 45.6836C39.9069 45.755 40.0277 45.7407 40.0229 45.6645Z" fill="#5E4F47"/>
<path d="M24.6711 37.6346C24.7001 37.787 24.9467 37.7489 24.9418 37.5965C24.9273 36.7869 24.9322 36.001 24.995 35.1962C25.0385 34.5722 25.0675 33.9436 24.85 33.3482C24.8306 33.2958 24.7436 33.3149 24.763 33.372C25.1835 34.7675 24.3859 36.2249 24.6711 37.6346Z" fill="#5E4F47"/>
<path d="M27.378 37.3965C27.4747 36.1153 27.5617 34.8628 27.7599 33.5911C27.7792 33.4768 27.6052 33.4292 27.581 33.5435C27.3538 34.8008 27.0735 36.1153 27.146 37.4013C27.1557 37.5441 27.3683 37.5441 27.378 37.3965Z" fill="#5E4F47"/>
<path d="M30.6504 37.1965C30.6359 36.0439 30.6166 34.8866 31.0129 33.7864C31.0419 33.7007 30.9114 33.6673 30.8776 33.7483C30.4522 34.8532 30.4377 36.0296 30.4184 37.1965C30.4184 37.3394 30.6552 37.3394 30.6504 37.1965Z" fill="#5E4F47"/>
<path d="M32.2649 36.9917C32.2745 35.8486 32.2794 34.7056 32.289 33.5626C32.289 33.4149 32.057 33.4149 32.057 33.5626C32.0667 34.7056 32.0715 35.8486 32.0812 36.9917C32.0812 37.1108 32.2649 37.1108 32.2649 36.9917Z" fill="#5E4F47"/>
<path d="M36.156 35.5534C36.1221 35.6962 36.3493 35.7581 36.3783 35.6153C36.5572 34.7342 36.417 33.6959 35.9191 32.9291C35.8708 32.8577 35.7548 32.9244 35.7983 32.9958C36.243 33.734 36.3542 34.7199 36.156 35.5534Z" fill="#5E4F47"/>
<path d="M37.8187 36.363C37.7994 36.4773 37.9783 36.5249 37.9976 36.4106C38.1813 35.3628 38.0411 34.2817 37.5771 33.3149C37.5239 33.2101 37.3692 33.3006 37.4176 33.4054C37.8526 34.3246 37.9928 35.3676 37.8187 36.363Z" fill="#5E4F47"/>
<path d="M38.8386 36.7917V33.9674C38.8386 33.8197 38.6066 33.8197 38.6066 33.9674V36.7917C38.6066 36.9393 38.8386 36.9393 38.8386 36.7917Z" fill="#5E4F47"/>
<path d="M58.971 51.3083C58.971 51.0606 58.7922 50.7939 58.5311 50.7415C53.8473 49.7985 49.1103 49.7176 44.3539 49.7128C44.3346 49.6175 44.3153 49.5223 44.2911 49.427C44.2234 49.1556 43.7787 49.2127 43.7932 49.4937C43.7981 49.5794 43.7981 49.6699 43.8029 49.7604C43.3389 49.9557 43.3582 50.7034 43.8512 50.8606C43.9189 52.7561 43.9092 54.6612 43.8802 56.552C43.8754 56.7758 44.0542 57.0616 44.3008 57.0949C48.8154 57.7188 53.6685 56.452 58.0091 58.1284C58.2895 58.238 58.6955 58.0094 58.7438 57.7188C59.087 55.5852 58.9952 53.4658 58.971 51.3083ZM57.6804 56.7711C53.6443 55.4756 49.2021 56.3662 45.021 56.0376C44.9823 54.285 44.8856 52.599 44.5908 50.8939C45.6155 50.8939 46.6451 50.9035 47.6698 50.9178C47.6118 52.6133 47.4958 54.304 47.8052 55.9852C47.839 56.1567 48.1097 56.0853 48.071 55.9138C47.7133 54.2659 47.7762 52.5942 47.781 50.9225C48.3272 50.932 48.8734 50.9416 49.4148 50.9606C49.7773 52.2799 49.4245 53.6849 49.8982 54.966C49.9368 55.0756 50.0915 55.0327 50.077 54.9184C49.8933 53.6134 49.9368 52.218 49.4921 50.9606C50.6861 50.9987 51.88 51.0511 53.0739 51.1368C53.8811 51.1987 57.7819 51.1845 57.7916 52.1846C57.8061 53.7325 57.8593 55.2375 57.6804 56.7711Z" fill="#5E4F47"/>
<path d="M44.0446 48.865C48.8154 49.1032 53.6008 49.0603 58.3716 48.865C58.7583 48.8507 59.0338 48.5078 58.9372 48.1316C58.3378 45.7836 59.1208 43.4308 58.5215 41.0733C58.478 40.8971 58.3039 40.7018 58.1154 40.6732C53.7409 40.0303 49.3084 41.7305 45.0161 40.478C44.7019 40.3875 44.4699 40.5446 44.3684 40.7685C44.2814 40.578 44.1847 40.3875 44.0639 40.2065C44.0494 40.1874 44.0204 40.197 44.0204 40.216C43.9044 42.9165 43.595 45.5883 43.4549 48.284C43.4404 48.6126 43.74 48.8507 44.0446 48.865ZM44.6584 41.5496C44.6778 41.5543 44.6923 41.5639 44.7116 41.5734C47.7327 42.4592 50.7634 41.9496 53.8473 41.6829C56.1046 41.4829 57.7867 41.7544 57.6176 44.3738C57.5402 45.5454 57.4871 46.6123 57.6659 47.7315C57.3855 47.741 57.1052 47.7458 56.8248 47.7506C56.8393 47.7315 56.8538 47.7125 56.8538 47.6839C56.9505 46.2884 56.8007 44.8453 56.762 43.4499C56.762 43.4213 56.7185 43.4213 56.7185 43.4499C56.6798 44.8501 56.53 46.2884 56.6267 47.6839C56.6267 47.7125 56.6412 47.7363 56.6605 47.7553C52.6582 47.8696 48.6607 47.8411 44.6584 47.7268C44.7358 45.7217 45.1998 43.4832 44.6584 41.5496Z" fill="#5E4F47"/>
<path d="M44.1605 39.4064C48.3804 37.9633 53.3929 39.0063 57.7625 39.0587C57.9511 39.0587 58.1782 38.9206 58.2121 38.7253C58.5698 36.4011 58.4683 34.0865 58.4538 31.748C58.4538 31.486 58.2362 31.2717 57.9704 31.2669C55.5149 31.2574 53.0594 31.2527 50.6039 31.2431C48.4722 31.2384 46.3647 30.8716 44.3249 31.648C44.1509 31.7146 44.0445 31.8432 44.001 31.9861C43.914 32.0147 43.8415 32.1004 43.8802 32.2004C44.6632 34.3055 43.7158 36.8202 43.6385 39.0063C43.6192 39.2682 43.9044 39.4968 44.1605 39.4064ZM44.5956 32.6529C47.2928 31.6099 50.8504 32.2481 53.7167 32.2385C54.2001 32.2385 57.4774 31.9194 57.487 32.5862C57.4919 33.0815 57.7287 38.1442 57.2357 38.1442C53.1174 38.1204 48.5254 37.2441 44.4941 38.4348C44.6197 36.5583 45.0306 34.4865 44.4506 32.6862C44.4989 32.6862 44.5472 32.6767 44.5956 32.6529Z" fill="#5E4F47"/>
<path d="M44.4264 30.1096C45.5381 30.7097 47.7761 30.3192 48.9459 30.3287C51.9669 30.3573 54.9445 30.0334 57.9655 30.3049C58.3764 30.343 58.5794 29.9143 58.5263 29.581C58.1879 27.4139 58.1492 25.266 58.1541 23.0799C58.1541 22.8227 57.9704 22.5798 57.719 22.5132C53.5331 21.4082 49.2262 22.937 45.0354 21.8845C44.4844 21.7464 44.1605 22.2988 44.2959 22.7037C43.7303 24.5135 42.4639 29.0523 44.4264 30.1096ZM44.5617 23.0132C44.6052 23.0323 44.6487 23.0513 44.7019 23.0656C47.4281 23.7372 50.1398 23.4371 52.9095 23.2704C53.7071 23.2228 54.495 23.2371 55.2925 23.2704C56.936 23.3371 56.9601 23.5609 56.9746 24.985C56.9891 26.3757 57.1052 27.7521 57.2937 29.1237C53.7312 28.8856 50.106 29.1618 46.5435 29.1952C45.1418 29.2095 44.6439 29.0809 44.5279 27.5521C44.4119 26.0328 44.5811 24.523 44.5617 23.0132Z" fill="#5E4F47"/>
<path d="M43.4162 20.2556C43.4114 20.5033 43.6095 20.8176 43.8802 20.8557C45.9249 21.1415 47.8874 21.7892 49.9562 21.9464C52.4213 22.1321 54.9059 21.2415 57.3517 21.1463C57.6466 21.1367 57.9559 20.9462 58.0236 20.6414C58.5795 18.0648 58.6036 15.6168 58.2411 13.0116C58.1976 12.702 57.8399 12.5115 57.5596 12.4972C53.1174 12.3306 48.6897 12.6735 44.2573 12.8783C43.9286 12.8926 43.6385 13.0878 43.5515 13.4069C43.2953 14.3452 43.2712 14.9738 43.7014 15.5978C43.9141 17.117 43.4597 18.7459 43.4162 20.2556ZM44.731 16.0216C44.7745 15.4406 44.8421 14.8643 44.905 14.288C45.05 14.2785 45.1902 14.2737 45.3352 14.2642C45.8185 15.693 45.4367 17.1694 45.543 18.6411C45.5575 18.8173 45.804 18.8173 45.8185 18.6411C45.9394 17.2694 45.949 15.5787 45.4028 14.2594C49.2456 14.0546 53.0787 13.7927 56.9312 13.8832C57.1777 15.9026 57.139 17.8076 56.7668 19.8127C54.6932 19.9794 52.6775 20.5081 50.5942 20.6081C48.5979 20.7033 46.6499 20.0699 44.6874 19.7365C44.7261 18.6506 44.7986 17.3742 44.5183 16.274C44.6294 16.2455 44.7213 16.155 44.731 16.0216Z" fill="#5E4F47"/>
<path d="M0.178849 40.059C1.86581 40.6448 3.65427 39.859 5.09471 38.9636C7.55022 37.4396 9.8849 35.6583 12.2147 33.9533C16.9517 30.4765 21.4954 26.8283 26.1406 23.2373C31.1918 19.3319 36.4605 15.6932 41.6954 12.0355C42.7781 11.2782 43.8416 10.4876 44.8905 9.67794C45.2723 10.3733 45.6929 11.0448 46.2052 11.6735C46.5097 12.0402 47.0801 11.8735 47.3121 11.5354C49.381 8.49203 51.3773 5.48678 53.7409 2.70538C54.1808 2.372 54.6207 2.04813 55.0654 1.72427C55.3409 1.58139 55.6068 1.43851 55.8678 1.30516C56.6798 0.876516 55.9596 -0.32844 55.1476 0.0906749C51.8848 1.7719 47.0415 4.36279 43.2228 3.81032C42.6331 3.7246 41.9709 4.29135 42.3721 4.89621C42.8942 5.67729 43.3147 6.51076 43.7207 7.34899C42.8603 7.98719 41.9951 8.62539 41.125 9.2493C36.0835 12.8546 30.9018 16.2647 25.8651 19.8891C21.2006 23.2468 16.7971 26.9379 11.9779 30.086C7.97075 32.7102 2.14133 35.0963 0.0290042 39.6923C-0.0386675 39.8447 0.0145031 39.9971 0.178849 40.059ZM46.0844 8.95877C46.0941 8.95877 46.1086 8.96354 46.1182 8.95877C46.1134 8.97306 46.1134 8.98259 46.1086 8.99688C46.1037 8.98735 46.0941 8.97306 46.0844 8.95877Z" fill="#5E4F47"/>
<path d="M1.07305 48.9269C1.91894 49.5985 3.2047 49.5604 4.21978 49.5366C6.15808 49.4889 7.89821 49.2603 9.83169 49.5985C12.3935 50.0509 15.7675 51.1225 18.136 49.5842C20.2773 48.1935 19.6972 44.5119 19.6392 42.4354C19.6344 42.2116 19.4749 41.9401 19.2284 41.902C16.1832 41.44 13.1379 41.3543 10.0589 41.4067C8.28491 41.4353 6.51094 41.5162 4.74181 41.5877C3.46089 41.64 1.98178 41.4448 0.773356 41.9068C0.449499 42.0306 0.444665 42.4402 0.773356 42.564C2.17513 43.0784 3.99259 42.7069 5.46203 42.6497C7.7822 42.5545 10.1024 42.4735 12.4225 42.4783C13.0364 42.4783 18.513 42.4878 18.5082 43.0546C18.4792 45.4264 18.8223 48.7174 15.6031 48.9841C13.6068 49.1508 11.5138 48.5412 9.55617 48.203C7.7677 47.8934 6.01791 48.0982 4.21978 48.2173C2.59082 48.3221 0.971538 47.9363 1.28573 45.8836C1.37273 45.3121 1.50808 44.7644 1.57091 44.1928C1.64825 43.5118 1.3099 43.0403 0.657348 43.0069C0.633179 43.0069 0.609011 43.026 0.609011 43.0498C0.68635 45.1359 -0.971605 47.3124 1.07305 48.9269Z" fill="#5E4F47"/>
<path d="M3.25307 46.4694C3.2144 45.4597 3.17573 44.4548 3.13706 43.4451C3.13706 43.4165 3.09356 43.4165 3.08872 43.4451C3.05005 44.4548 3.01139 45.4597 2.97272 46.4694C2.96788 46.6456 3.2579 46.6456 3.25307 46.4694Z" fill="#5E4F47"/>
<path d="M4.21014 47.9172C4.26814 48.0792 4.52433 48.0173 4.47599 47.8458C4.03129 46.2217 4.56783 44.6786 4.38898 43.0403C4.38415 42.9831 4.29231 42.9831 4.29714 43.0403C4.39382 44.6691 3.62526 46.3313 4.21014 47.9172Z" fill="#5E4F47"/>
<path d="M6.11458 47.0743C6.07591 45.7312 6.03724 44.3834 5.99857 43.0403C5.99857 43.0117 5.95507 43.0117 5.95024 43.0403C5.91157 44.3834 5.8729 45.7312 5.83423 47.0743C5.83423 47.2505 6.11942 47.2505 6.11458 47.0743Z" fill="#5E4F47"/>
<path d="M8.57014 47.241C8.17378 45.6836 8.12544 44.2357 8.09644 42.6402C8.09644 42.5545 7.9611 42.5545 7.95626 42.6402C7.90309 44.1452 7.56473 45.955 8.31396 47.3457C8.39129 47.4839 8.60398 47.3886 8.57014 47.241Z" fill="#5E4F47"/>
<path d="M9.77853 47.2791C9.8752 45.8788 9.7737 44.4453 9.75436 43.045C9.75436 42.926 9.57068 42.926 9.57068 43.045C9.55618 44.4453 9.44984 45.8788 9.54651 47.2791C9.55618 47.4219 9.76886 47.4219 9.77853 47.2791Z" fill="#5E4F47"/>
<path d="M11.5719 47.2791C11.5815 47.4553 11.8377 47.4553 11.8474 47.2791C11.9392 45.8741 11.683 44.4548 11.7314 43.045C11.7314 43.0117 11.683 43.0117 11.683 43.045C11.7314 44.45 11.4752 45.8693 11.5719 47.2791Z" fill="#5E4F47"/>
<path d="M13.2588 47.2791C13.1138 46.0693 13.0364 44.8691 13.0074 43.6499C13.0074 43.5642 12.8721 43.5642 12.8672 43.6499C12.8431 44.8501 12.7367 46.136 13.0316 47.3076C13.0606 47.4315 13.2733 47.4076 13.2588 47.2791Z" fill="#5E4F47"/>
<path d="M15.5306 47.8839C15.5209 46.5408 15.5161 45.193 15.5064 43.8499C15.5064 43.7023 15.2792 43.7023 15.2744 43.8499C15.2647 45.193 15.2599 46.5408 15.2502 47.8839C15.2551 48.0601 15.5306 48.0601 15.5306 47.8839Z" fill="#5E4F47"/>
<path d="M17.5559 47.8839L17.5076 43.4499C17.5076 43.3641 17.3723 43.3641 17.3674 43.4499L17.3191 47.8839C17.3239 48.0268 17.5559 48.0268 17.5559 47.8839Z" fill="#5E4F47"/>
<path d="M47.0269 19.446C46.9979 17.8981 46.9641 16.355 46.9351 14.8072C46.9351 14.7786 46.8916 14.7786 46.8868 14.8072C46.8578 16.355 46.8239 17.8981 46.7949 19.446C46.7949 19.5936 47.0318 19.5936 47.0269 19.446Z" fill="#5E4F47"/>
<path d="M48.5737 14.4071C48.5737 14.3785 48.5254 14.3785 48.5254 14.4071C48.5447 14.8214 48.5496 15.2358 48.5496 15.6549C48.5496 15.2358 48.5544 14.8214 48.5737 14.4071Z" fill="#5E4F47"/>
<path d="M48.6656 19.446C48.6365 18.1934 48.5544 16.9313 48.5495 15.674C48.5447 16.9313 48.4625 18.1982 48.4335 19.446C48.4335 19.5936 48.6704 19.5936 48.6656 19.446Z" fill="#5E4F47"/>
<path d="M49.6613 18.8411C49.671 18.9888 49.8837 18.9888 49.8933 18.8411C49.9803 17.3647 49.7338 15.8788 49.8015 14.4023C49.8015 14.3737 49.7483 14.3737 49.7532 14.4023C49.8257 15.8835 49.5743 17.3695 49.6613 18.8411Z" fill="#5E4F47"/>
<path d="M51.1211 19.0459L51.0534 14.8119C51.0534 14.7548 50.9615 14.7548 50.9615 14.8119L50.8939 19.0459C50.889 19.1888 51.1211 19.1888 51.1211 19.0459Z" fill="#5E4F47"/>
<path d="M52.7355 19.6508L52.7113 15.6168C52.7113 15.5311 52.576 15.5311 52.5712 15.6168L52.547 19.6508C52.5518 19.7651 52.7355 19.7651 52.7355 19.6508Z" fill="#5E4F47"/>
<path d="M54.1421 18.4411C54.1373 18.6173 54.4176 18.6173 54.4176 18.4411C54.408 17.0551 54.5433 15.6597 53.9294 14.3737C53.8908 14.2928 53.7748 14.3642 53.8086 14.4404C54.3693 15.7168 54.176 17.0932 54.1421 18.4411Z" fill="#5E4F47"/>
<path d="M55.6212 18.8411C55.5922 17.4981 55.5584 16.1502 55.5294 14.8072C55.5294 14.7786 55.4859 14.7786 55.4811 14.8072C55.4521 16.1502 55.4182 17.4981 55.3892 18.8411C55.3892 18.9888 55.6261 18.9888 55.6212 18.8411Z" fill="#5E4F47"/>
<path d="M46.0022 27.714C46.0118 27.8331 46.1762 27.8283 46.1859 27.714C46.3067 26.3662 46.3454 24.885 45.7653 23.6372C45.717 23.5324 45.5575 23.6229 45.6058 23.7276C46.1955 25.0326 45.9055 26.3519 46.0022 27.714Z" fill="#5E4F47"/>
<path d="M47.4329 28.2903C46.9786 26.8138 47.0366 25.4041 47.0511 23.8848C47.0511 23.7086 46.7756 23.7086 46.7756 23.8848C46.7611 25.3708 46.5532 26.9901 47.2251 28.376C47.2783 28.4951 47.4716 28.4141 47.4329 28.2903Z" fill="#5E4F47"/>
<path d="M48.6656 28.1188C48.6365 26.9043 48.5737 25.6613 48.9846 24.4944C48.9942 24.4659 48.9507 24.4563 48.9411 24.4849C48.4722 25.6375 48.4722 26.8948 48.4384 28.1188C48.4335 28.2665 48.6704 28.2665 48.6656 28.1188Z" fill="#5E4F47"/>
<path d="M50.5024 28.0902C50.0819 26.7329 50.2607 25.285 50.2559 23.8848C50.2559 23.7991 50.1205 23.7991 50.1157 23.8848C50.0867 25.3041 49.8788 26.7615 50.28 28.1522C50.3235 28.2903 50.5459 28.2284 50.5024 28.0902Z" fill="#5E4F47"/>
<path d="M51.9622 27.9188C51.9477 26.4376 51.9332 24.9612 51.9138 23.48C51.9138 23.3609 51.7301 23.3609 51.7301 23.48C51.7156 24.9564 51.7011 26.4376 51.6866 27.9188C51.6866 28.095 51.9622 28.095 51.9622 27.9188Z" fill="#5E4F47"/>
<path d="M53.5717 27.5425C53.7651 26.2566 53.9246 24.9802 53.9149 23.68C53.9149 23.6229 53.8231 23.6229 53.8231 23.68C53.7893 24.9659 53.5862 26.2185 53.3494 27.4806C53.3252 27.6283 53.5524 27.6854 53.5717 27.5425Z" fill="#5E4F47"/>
<path d="M55.1862 27.9426C55.4037 26.6472 55.7227 25.4089 55.5536 24.0848C55.5439 24.0277 55.4569 24.0277 55.4617 24.0848C55.6019 25.3946 55.2539 26.6186 55.0122 27.8902C54.988 28.0093 55.1669 28.0569 55.1862 27.9426Z" fill="#5E4F47"/>
<path d="M56.0079 28.7475C56.2206 27.5378 56.4188 26.3281 56.4429 25.0945C56.4429 24.9469 56.2158 24.9469 56.2109 25.0945C56.2013 26.309 56.0224 27.5044 55.8291 28.6999C55.8097 28.8142 55.9838 28.8666 56.0079 28.7475Z" fill="#5E4F47"/>
<path d="M46.21 36.9917C46.1714 35.6248 45.949 34.2912 45.7315 32.9482C45.7218 32.9005 45.6348 32.9101 45.6397 32.9625C45.8137 34.3055 45.9877 35.6391 45.978 36.9964C45.978 37.1393 46.2149 37.1393 46.21 36.9917Z" fill="#5E4F47"/>
<path d="M47.0269 36.9917C47.0124 35.782 46.9979 34.5722 46.9834 33.3625C46.9834 33.2768 46.8481 33.2768 46.8433 33.3625C46.8288 34.5722 46.8143 35.782 46.7949 36.9917C46.7949 37.1393 47.0318 37.1393 47.0269 36.9917Z" fill="#5E4F47"/>
<path d="M48.6897 36.9917C48.6607 35.6486 48.6269 34.3008 48.5979 32.9577C48.5979 32.9005 48.506 32.9005 48.506 32.9577C48.477 34.3008 48.4432 35.6486 48.4142 36.9917C48.4094 37.1679 48.6897 37.1679 48.6897 36.9917Z" fill="#5E4F47"/>
<path d="M50.193 35.882C50.164 36.4535 49.961 37.0298 50.0287 37.5965C50.0432 37.7347 50.251 37.8347 50.3284 37.6775C50.8746 36.544 50.7054 34.8866 50.3912 33.7102C50.3235 33.4578 49.9272 33.5626 49.99 33.8197C50.164 34.5056 50.222 35.1771 50.193 35.882Z" fill="#5E4F47"/>
<path d="M51.5078 37.3965C51.619 36.0725 51.4836 34.6913 51.4643 33.3625C51.4643 33.3054 51.3725 33.3054 51.3725 33.3625C51.3483 34.6913 51.2178 36.0725 51.3241 37.3965C51.3338 37.5108 51.4981 37.5108 51.5078 37.3965Z" fill="#5E4F47"/>
<path d="M52.7114 37.3965C52.6969 36.7202 52.6631 36.0344 52.6437 35.3486C52.6244 36.0344 52.5857 36.7202 52.576 37.3965C52.5712 37.4822 52.7162 37.4822 52.7114 37.3965Z" fill="#5E4F47"/>
<path d="M52.6678 33.5626C52.6678 33.5292 52.6147 33.5292 52.6195 33.5626C52.634 33.7721 52.6388 33.9817 52.6437 34.1912C52.6485 33.9864 52.6533 33.7721 52.6678 33.5626Z" fill="#5E4F47"/>
<path d="M54.3935 37.3679C53.8135 35.9487 53.9488 34.4579 53.944 32.9625C53.944 32.872 53.8086 32.8767 53.8038 32.9625C53.7748 34.4817 53.6104 35.9772 54.1712 37.4298C54.2243 37.5632 54.4467 37.5013 54.3935 37.3679Z" fill="#5E4F47"/>
<path d="M55.2152 36.7917C55.1379 35.4962 55.0509 34.2103 55.5343 32.9672C55.5439 32.9387 55.4956 32.9244 55.4859 32.9529C55.1621 34.2008 54.6835 35.52 54.9881 36.8202C55.0171 36.9441 55.2201 36.9202 55.2152 36.7917Z" fill="#5E4F47"/>
<path d="M56.0127 37.8299C56.0563 37.9395 56.2496 37.9395 56.2399 37.8013C56.1723 36.8202 56.2641 35.8915 56.3994 34.9199C56.4913 34.2627 56.5638 33.5959 56.3704 32.9482C56.3511 32.891 56.2689 32.9148 56.2834 32.972C56.6556 34.5722 55.3844 36.2725 56.0127 37.8299Z" fill="#5E4F47"/>
<path d="M47.0511 47.0743C47.0849 46.3932 46.8287 45.6931 46.7852 45.0073C46.7369 44.2214 46.8384 43.4308 47.0221 42.6688C47.0559 42.5259 46.8432 42.4688 46.7997 42.6069C46.4227 43.8737 46.0263 45.955 46.7901 47.1409C46.8674 47.26 47.0414 47.2124 47.0511 47.0743Z" fill="#5E4F47"/>
<path d="M48.2499 47.2457C47.9695 45.9693 47.8535 44.7548 47.8438 43.4451C47.8438 43.2975 47.6167 43.2975 47.6118 43.4451C47.6022 44.7072 47.5296 46.117 48.0275 47.3076C48.0855 47.441 48.2837 47.3934 48.2499 47.2457Z" fill="#5E4F47"/>
<path d="M49.8933 46.8742C49.9997 45.6121 49.8885 44.3071 49.8692 43.0403C49.8692 42.9212 49.6855 42.9212 49.6855 43.0403C49.671 44.3024 49.555 45.6121 49.6613 46.8742C49.6758 47.0219 49.8788 47.0219 49.8933 46.8742Z" fill="#5E4F47"/>
<path d="M51.9379 46.4694V43.0403C51.9379 42.8926 51.7059 42.8926 51.7059 43.0403V46.4694C51.7108 46.617 51.9379 46.617 51.9379 46.4694Z" fill="#5E4F47"/>
<path d="M52.7597 46.2694C52.7355 45.0597 52.7162 43.8499 52.692 42.6402C52.692 42.5831 52.6002 42.5831 52.6002 42.6402C52.576 43.8499 52.5567 45.0597 52.5325 46.2694C52.5228 46.417 52.7597 46.417 52.7597 46.2694Z" fill="#5E4F47"/>
<path d="M54.3935 46.4694L54.3693 43.2451C54.3693 43.126 54.1857 43.126 54.1857 43.2451L54.1615 46.4694C54.1663 46.617 54.3983 46.617 54.3935 46.4694Z" fill="#5E4F47"/>
<path d="M55.9402 46.6742C55.9499 45.8693 55.9547 45.0597 55.9644 44.2548C55.9644 44.1976 55.8726 44.1976 55.8726 44.2548C55.8822 45.0597 55.8871 45.8693 55.8967 46.6742C55.8967 46.7028 55.9402 46.7028 55.9402 46.6742Z" fill="#5E4F47"/>
<path d="M45.2917 51.8988C45.2723 51.8846 45.2433 51.9036 45.2578 51.9274C45.9152 52.9895 45.2723 54.4373 45.5527 55.5804C45.5865 55.7137 45.7847 55.709 45.8185 55.5804C46.0167 54.8279 45.9394 53.9801 45.8765 53.2133C45.833 52.7085 45.6929 52.237 45.2917 51.8988Z" fill="#5E4F47"/>
<path d="M51.1162 51.6845C51.0727 51.5464 50.8552 51.6036 50.8939 51.7464C51.2371 52.9419 50.9374 54.1897 51.2806 55.3804C51.3289 55.5471 51.5996 55.4756 51.5464 55.3089C51.1936 54.1182 51.4739 52.8752 51.1162 51.6845Z" fill="#5E4F47"/>
<path d="M52.982 51.9179C52.9482 53.18 52.8225 54.4897 52.9144 55.7519C52.9289 55.9281 53.1754 55.9281 53.1899 55.7519C53.2817 54.4897 53.1512 53.1848 53.1222 51.9179C53.1174 51.8274 52.9869 51.8274 52.982 51.9179Z" fill="#5E4F47"/>
<path d="M55.0509 51.9179C55.0025 53.099 54.7802 54.4135 54.9639 55.5852C54.9832 55.7137 55.2104 55.7137 55.2297 55.5852C55.4182 54.4183 55.1911 53.099 55.1427 51.9179C55.1427 51.856 55.0557 51.856 55.0509 51.9179Z" fill="#5E4F47"/>
<path d="M56.646 52.1179C56.6363 53.261 56.6315 54.404 56.6218 55.547C56.6218 55.6947 56.8538 55.6947 56.8538 55.547C56.8442 54.404 56.8393 53.261 56.8297 52.1179C56.8297 51.9989 56.646 51.9989 56.646 52.1179Z" fill="#5E4F47"/>
</g>
<defs>
<clipPath id="clip0_1_55">
<rect width="59" height="59" fill="white"/>
</clipPath>
</defs>
</svg>
