<svg width="61" height="42" viewBox="0 0 61 42" fill="none" xmlns="http://www.w3.org/2000/svg">
<g clip-path="url(#clip0_1_189)">
<path d="M60.6646 4.00051C59.5672 1.82623 56.7527 0.32512 54.3645 0.0775148C52.4184 -0.127533 50.4842 0.116203 48.5578 0.425709C47.2591 0.25935 45.9722 0.301907 44.6024 0.321251C42.5261 0.352202 40.4497 0.402496 38.3694 0.460529C34.2246 0.580463 30.0798 0.742953 25.9349 0.905444C22.1612 1.05246 18.3914 1.23429 14.6215 1.37357C14.5307 1.27298 14.3886 1.20721 14.211 1.23429C13.9386 1.27685 13.6662 1.33875 13.3899 1.41613C11.5346 1.47416 9.67537 1.49351 7.82402 1.59796C5.90556 1.70629 3.93183 1.65213 2.041 2.02354C1.87915 2.05835 1.83178 2.24019 1.89099 2.36786C0.288329 3.32733 0.138325 5.79564 0.0396391 7.43989C-0.126154 10.1713 0.300171 12.8601 0.485701 15.576C0.592283 17.112 0.501491 18.6556 0.489649 20.1916C0.465964 22.4161 0.560703 24.6446 0.623862 26.8692C0.750181 31.268 0.939659 35.6669 1.12519 40.0657C1.14887 40.6151 1.55546 40.9904 2.10416 41.0252C7.48059 41.3579 12.8412 41.9653 18.2295 42.0001C20.8348 42.0156 23.4796 41.7138 26.0415 41.2689C27.3008 41.0484 28.5442 40.7621 29.7758 40.4139C30.964 40.0812 32.1916 39.7601 33.1785 39.0134C33.2022 38.9979 33.218 38.9747 33.2338 38.9515C34.8799 38.0036 36.1825 36.5799 36.5417 34.7577C36.9365 32.7536 35.8944 31.4769 34.3549 30.7109C36.0286 30.2041 37.6194 28.9003 38.3339 27.434C39.0484 25.9677 38.7839 24.308 37.9865 22.9307C37.4536 22.0099 36.5891 21.1665 35.5944 20.5823C35.772 20.5165 35.9299 20.4508 36.072 20.3927C37.5602 19.7853 39.0918 18.733 39.676 17.1932C40.1931 15.8353 39.7944 14.3071 38.6142 13.4288C38.2392 13.1503 37.8207 12.9839 37.3825 12.8601C39.1747 12.8795 40.9708 12.864 42.7708 12.7789C45.3169 12.6589 47.8591 12.4307 50.3815 12.0399C51.625 11.8465 52.8566 11.5989 54.0803 11.3087C55.1737 11.0495 56.2869 10.9296 57.0093 10.0552C57.108 9.93529 57.1317 9.7728 57.0725 9.649C59.5515 8.49222 61.8962 6.44561 60.6646 4.00051ZM32.9101 30.1035C32.8746 30.1151 32.8469 30.1344 32.8272 30.1538C32.5746 30.0841 32.314 30.0261 32.0535 29.9758C32.3653 29.9758 32.6732 29.972 32.9851 29.9565C33.1232 29.9487 33.2693 29.9371 33.4154 29.9255C33.2535 29.9874 33.0838 30.0455 32.9101 30.1035ZM38.7405 16.8141C38.4681 17.4099 38.0062 17.8973 37.4576 18.2997C38.101 16.7173 37.501 14.5818 36.4154 13.2161C38.0023 13.9589 39.7076 14.6901 38.7405 16.8141ZM58.2409 7.61399C57.8698 7.89255 57.483 8.13628 57.0843 8.36841C57.5422 7.89255 57.9251 7.35478 58.158 6.75124C58.7699 5.1805 58.312 3.61749 57.4475 2.22858C57.408 2.16668 57.3172 2.22085 57.3488 2.28275C58.1501 3.7529 58.4975 5.37781 57.6448 6.906C56.9264 8.19045 55.5251 9.00677 54.2106 9.5987C54.2027 9.5987 54.1908 9.59483 54.1829 9.59483C53.2118 9.62578 52.221 10.0204 51.2697 10.2177C50.0973 10.4576 48.9052 10.6123 47.713 10.7323C45.4867 10.9605 43.2406 10.9992 41.0024 10.9876C36.6049 10.9644 32.2193 10.7632 27.8218 11.0418C27.7744 11.0456 27.7744 11.1153 27.8218 11.1153C32.2667 11.0882 36.6996 11.506 41.1445 11.5602C36.7115 11.831 32.2588 11.9587 27.8218 12.1367C27.5534 12.1483 27.5534 12.5313 27.8218 12.5429C30.435 12.6512 33.0364 12.775 35.6417 12.8408C35.847 12.9491 36.0641 13.0574 36.2852 13.1619C36.9523 14.1523 37.2878 15.2433 37.3312 16.4388C37.3707 17.5337 36.9168 18.3152 36.2496 19.0154C36.1509 19.0619 36.0523 19.1083 35.9536 19.1508C35.918 19.1238 35.8707 19.1083 35.8115 19.116C33.1232 19.5029 30.5653 20.4353 27.8179 20.5243C27.806 20.5243 27.806 20.5436 27.8179 20.5436C28.8205 20.5591 29.8311 20.532 30.8337 20.4508C30.664 20.5707 30.4982 20.71 30.3403 20.8647C30.3008 20.8725 30.2613 20.8763 30.2219 20.8802C28.9508 21.0466 27.6994 21.2593 26.5192 21.7739C26.4994 21.7816 26.5152 21.8165 26.5349 21.8087C27.7073 21.4025 28.9508 21.3445 30.1903 21.2903C30.2653 21.3909 30.4271 21.4373 30.5614 21.329C30.589 21.3058 30.6127 21.2903 30.6403 21.271C31.1061 21.2516 31.568 21.2245 32.0298 21.1742C32.7009 21.3445 33.5575 21.2129 34.3509 20.9963C35.4522 21.4837 36.4391 22.362 37.0312 23.2982C37.7141 24.3776 37.9352 25.724 37.3944 26.904C37.2641 27.1903 37.1023 27.4379 36.9207 27.6661C37.0312 27.4224 37.122 27.1787 37.1931 26.9388C37.7418 25.0392 36.8536 23.2441 34.9075 22.6831C34.8364 22.6637 34.8088 22.7643 34.8759 22.7914C36.7589 23.4955 37.2839 25.221 36.6207 26.9891C36.2812 27.8944 35.7167 28.5714 35.0101 29.086C32.5272 29.8907 29.7916 29.8017 27.1823 29.3375C27.1586 29.3336 27.1468 29.3645 27.1705 29.3723C27.7981 29.5232 28.4297 29.647 29.0692 29.7437C28.86 29.7514 28.6547 29.763 28.4613 29.7824C28.1929 29.8056 28.1968 30.1615 28.4613 30.1886C30.8653 30.4401 36.1746 31.1636 35.3022 34.7151C34.643 37.4001 31.4219 38.6149 28.8087 39.4545C28.8797 39.4003 28.9468 39.3461 29.01 39.292C29.089 39.2301 29.1679 39.1643 29.2468 39.0985C30.1666 38.6884 31.0785 38.2396 31.9785 37.8218C33.2417 37.2376 34.3509 36.3052 34.9549 35.0595C34.9943 34.9743 34.8759 34.9047 34.8246 34.986C33.8733 36.518 32.3022 37.0867 30.7271 37.6709C31.0982 37.2531 31.4495 36.8159 31.789 36.3478C31.8759 36.224 31.6864 36.0924 31.5837 36.1892C30.8061 36.9397 29.9771 37.6671 29.1126 38.3325C28.5876 38.584 28.0902 38.878 27.6481 39.261C27.6323 39.2726 27.6244 39.2881 27.6165 39.3036C27.431 39.4003 27.2415 39.4931 27.056 39.5899C26.5231 39.5357 25.9902 39.4854 25.4573 39.4467C26.6376 38.6149 27.6284 37.3305 28.6547 36.4638C28.8797 36.2743 28.5797 35.8913 28.335 36.0576C26.835 37.0829 25.3941 38.2396 23.9454 39.3423C23.2072 39.2997 22.473 39.2649 21.7348 39.2417C22.8441 38.3828 23.8586 37.5046 24.7468 36.4136C24.8691 36.2665 24.7033 35.988 24.5178 36.1234C23.4638 36.9126 22.3862 37.6864 21.3046 38.4408C20.9375 38.6962 20.4993 38.936 20.073 39.1952C19.6151 39.1836 19.1572 39.1759 18.7032 39.1682C19.9585 38.2783 20.8585 37.0867 21.6559 35.7984C21.8296 35.516 21.4072 35.1833 21.1822 35.4425C20.3138 36.4406 19.3624 37.4272 18.2848 38.2126C17.7361 38.611 17.1282 38.9128 16.4926 39.1449C16.3031 39.1411 16.1176 39.1411 15.9281 39.1372C15.1979 39.1295 14.4676 39.1295 13.7373 39.1256C13.9978 38.9322 14.2465 38.7348 14.4873 38.5491C15.5255 37.7406 16.4137 36.8894 16.994 35.7094C17.0453 35.605 16.9032 35.4734 16.8163 35.5779C16.0505 36.5025 15.0163 37.2879 14.0334 37.9766C13.4057 38.4137 12.6833 38.7348 12.0202 39.1217C11.3728 39.1217 10.7214 39.1256 10.0741 39.1295C10.7017 38.7967 11.282 38.3286 11.807 37.9108C12.9281 37.021 13.8399 35.9067 14.9808 35.0362C14.9965 35.0246 14.9768 34.9976 14.9571 35.0053C13.9741 35.5934 13.0939 36.3284 12.186 37.0248C11.5623 37.5046 10.9622 37.992 10.2912 38.406C9.81748 38.7 9.29247 38.8935 8.79114 39.1333C8.27008 39.1372 7.74902 39.1527 7.224 39.1604C8.91746 38.495 10.4057 37.2995 11.282 35.752C11.3767 35.5895 11.1754 35.3458 10.9978 35.4734C9.93985 36.2549 9.02799 37.1951 7.91086 37.903C6.82137 38.5956 5.61739 39.0211 4.34631 39.1295C4.37394 39.0405 4.39763 38.9476 4.42131 38.8587C5.71608 38.4021 7.21611 37.5549 7.46085 36.3362C7.50033 36.1389 7.3148 36.0035 7.12927 36.0847C6.45425 36.3942 5.90556 37.021 5.30949 37.4543C5.10028 37.6051 4.87922 37.7406 4.65421 37.8682C4.92264 36.5412 5.06475 35.1523 5.27002 33.8679C5.57397 31.9953 5.8424 30.1112 6.03977 28.2232C6.47794 23.9907 6.65952 19.735 6.62004 15.4793C6.62004 15.4561 6.58452 15.4561 6.58057 15.4793C6.5332 19.6228 6.25293 23.747 5.76345 27.8557C5.51081 29.9642 5.23054 32.065 4.89106 34.158C4.6779 35.4734 4.32263 36.8198 4.10552 38.1584C3.84104 38.2783 3.57261 38.3828 3.30024 38.4679C2.85812 38.5994 3.0397 39.2455 3.48971 39.1411C3.64366 39.1063 3.81341 39.0598 3.98709 39.0095C3.98315 39.0598 3.9792 39.1101 3.9713 39.1604C3.78183 39.1682 3.5884 39.1682 3.39497 39.1604C3.33971 39.1604 3.29629 39.1682 3.25681 39.1875C3.18971 39.1836 3.11865 39.1759 3.05155 39.172C2.8976 35.3341 2.74364 31.4963 2.63312 27.6584C2.51864 23.9018 2.61338 20.1142 2.35679 16.3653C2.191 13.9163 1.77652 11.448 1.41335 9.01838C1.13308 7.14586 0.568598 4.08175 1.94626 2.44137C1.97389 2.46458 2.00547 2.48006 2.041 2.48779C3.73051 2.81665 5.48713 2.76635 7.20822 2.80117C5.16738 3.3312 3.56472 5.57125 2.5068 7.15747C2.30548 7.45924 2.78707 7.72619 2.99233 7.43603C4.40158 5.45905 5.98056 4.00438 8.27008 3.07973C8.39245 3.02943 8.43587 2.9095 8.40035 2.81278C9.0872 2.81665 9.77406 2.81278 10.4609 2.80117C8.98457 3.8032 7.71744 5.15729 7.07005 6.56554C6.95953 6.80541 7.26743 6.97564 7.42927 6.77059C8.86615 4.92903 10.528 3.66779 12.5333 2.75474C12.8768 2.74701 13.2241 2.7354 13.5676 2.72766C13.8636 2.71992 14.1597 2.71219 14.4557 2.70445C14.3965 2.74701 14.3373 2.78569 14.2781 2.82825C13.157 3.64457 11.5583 5.18437 11.7438 6.66226C11.7438 6.67 11.7557 6.67774 11.7596 6.67C12.2294 6.24056 12.4583 5.77243 12.8254 5.25788C13.3149 4.56536 13.986 3.99277 14.6807 3.50917C15.186 3.1571 15.7347 2.88242 16.3031 2.65802C17.2584 2.63094 18.2177 2.60386 19.1729 2.57678C17.365 3.40084 15.8373 4.89807 15.5018 6.63518C15.4781 6.75124 15.6479 6.84023 15.7071 6.72029C16.4295 5.24627 17.3887 4.20555 18.9124 3.50143C20.3335 2.84373 21.9125 2.87855 23.377 2.44911C23.3888 2.44524 23.3928 2.44137 23.4046 2.4375C24.2494 2.40655 25.0902 2.3756 25.9349 2.34465C26.0139 2.34078 26.0889 2.34078 26.1678 2.33691C25.8362 2.45684 25.5047 2.57678 25.177 2.69671C23.3612 3.36602 21.6204 4.1746 19.994 5.21919C19.7453 5.37781 19.9585 5.71053 20.223 5.6022C22.0388 4.82844 23.8467 4.03146 25.7297 3.41244C26.606 3.12615 27.4942 2.88628 28.3824 2.64642C28.9034 2.50327 29.4758 2.40655 29.9771 2.19376C30.4785 2.17442 30.9798 2.15508 31.4772 2.13573C31.2916 2.24019 31.1219 2.33691 30.9837 2.42202C29.5587 3.2693 28.4258 4.50732 27.66 5.9504C27.5494 6.16318 27.8495 6.33341 27.9837 6.1361C28.8561 4.8826 30.0482 3.84962 31.3706 3.06812C32.0061 2.69284 32.6969 2.4375 33.4114 2.24793C33.8654 2.12799 34.2956 2.16281 34.6825 2.02354C35.5272 1.98872 36.3681 1.96163 37.2128 1.93455C36.9207 2.10865 36.6325 2.28662 36.3483 2.48393C35.0851 3.36215 33.8535 4.48024 33.5022 6.00843C33.4706 6.1361 33.6325 6.19026 33.7075 6.09354C34.6312 4.88647 35.7523 3.83028 37.0391 3.00622C37.7457 2.55357 38.5115 2.19376 39.2931 1.89586C39.3129 1.88813 39.3326 1.88426 39.3523 1.87652C40.4774 1.84557 41.6024 1.81849 42.7274 1.79914C41.5511 2.27888 40.5524 2.99461 39.7944 4.01211C39.605 4.26746 40.0392 4.59244 40.2366 4.3487C41.1445 3.22287 42.3484 2.6116 43.7301 2.19763C44.4011 1.99645 45.1275 1.89586 45.8301 1.75659C47.263 1.73724 48.6565 1.67147 50.0776 1.27298C50.2039 1.23816 50.271 1.13371 50.2749 1.02538C53.6895 0.882231 57.0725 0.95187 59.3659 3.97342C60.4396 5.37781 59.4449 6.70869 58.2409 7.61399Z" fill="#5E4F47"/>
<path d="M51.609 1.61718C51.5972 1.62104 51.6011 1.64039 51.613 1.63652C53.863 1.18387 56.6618 2.1975 56.7604 4.75866C56.7999 5.72587 56.2749 6.58475 55.5407 7.19216C54.3959 8.14002 52.9393 8.09746 51.5695 8.41471C51.4274 8.44953 51.4235 8.67005 51.5695 8.701C54.1038 9.21556 57.3052 7.37012 57.0723 4.61939C56.8433 1.89573 53.8749 1.25737 51.609 1.61718Z" fill="#5E4F47"/>
<path d="M28.4651 13.7459C30.3559 13.7576 32.377 13.9665 34.2521 13.7266C34.4218 13.7034 34.4218 13.4906 34.2521 13.4674C32.377 13.2275 30.3559 13.4364 28.4651 13.448C28.2717 13.4519 28.2717 13.7459 28.4651 13.7459Z" fill="#5E4F47"/>
<path d="M4.08956 8.87123C4.08956 8.79772 3.97509 8.79772 3.97509 8.87123C3.94351 13.2701 4.27509 17.6651 4.36588 22.0639C4.41325 24.3001 4.41325 26.5324 4.25141 28.7647C4.09746 30.8926 3.55271 32.9237 3.27639 35.0245C3.26454 35.1328 3.44218 35.1793 3.4856 35.0825C4.23957 33.3648 4.38957 31.3027 4.5672 29.4573C4.79221 27.1244 4.8001 24.7721 4.74879 22.4276C4.658 17.9011 4.14877 13.3978 4.08956 8.87123Z" fill="#5E4F47"/>
<path d="M9.61994 23.6269C8.38834 27.8826 7.05015 32.8077 7.80017 37.2529C7.81596 37.3613 7.98175 37.3303 7.9857 37.2297C8.07254 34.9742 8.10807 32.7496 8.4515 30.5096C8.80282 28.2192 9.3752 25.9637 10.0186 23.7353C10.0936 23.4838 9.69495 23.3755 9.61994 23.6269Z" fill="#5E4F47"/>
<path d="M12.9595 24.9423C12.9121 28.0451 12.4582 31.0551 11.641 34.0496C11.6016 34.1888 11.8068 34.2391 11.8582 34.1076C12.9674 31.2369 13.1332 27.9832 13.1095 24.9423C13.1095 24.8456 12.9634 24.8456 12.9595 24.9423Z" fill="#5E4F47"/>
</g>
<defs>
<clipPath id="clip0_1_189">
<rect width="61" height="42" fill="white"/>
</clipPath>
</defs>
</svg>
